0
SECTION
2
HEADER
9
$INSUNITS
70
4
9
$ACADVER
1
AC1014
9
$HANDSEED
5
FFFF
0
ENDSEC
0
SECTION
2
TABLES
0
TABLE
2
VPORT
5
8
100
AcDbSymbolTable
0
ENDTAB
0
TABLE
2
LTYPE
5
5
100
AcDbSymbolTable
0
LTYPE
5
14
100
AcDbSymbolTableRecord
100
AcDbLinetypeTableRecord
2
BYBLOCK
70
0
0
LTYPE
5
15
100
AcDbSymbolTableRecord
100
AcDbLinetypeTableRecord
2
BYLAYER
70
0
0
ENDTAB
0
TABLE
2
LAYER
5
2
100
AcDbSymbolTable
70
2
0
LAYER
5
50
100
AcDbSymbolTableRecord
100
AcDbLayerTableRecord
2
0
70
0
6
CONTINUOUS
0
ENDTAB
0
TABLE
2
STYLE
5
3
100
AcDbSymbolTable
70
1
0
STYLE
5
11
100
AcDbSymbolTableRecord
100
AcDbTextStyleTableRecord
2
STANDARD
70
0
0
ENDTAB
0
TABLE
2
VIEW
5
6
100
AcDbSymbolTable
70
0
0
ENDTAB
0
TABLE
2
UCS
5
7
100
AcDbSymbolTable
70
0
0
ENDTAB
0
TABLE
2
APPID
5
9
100
AcDbSymbolTable
70
2
0
APPID
5
12
100
AcDbSymbolTableRecord
100
AcDbRegAppTableRecord
2
ACAD
70
0
0
ENDTAB
0
TABLE
2
DIMSTYLE
5
A
100
AcDbSymbolTable
70
1
0
ENDTAB
0
TABLE
2
BLOCK_RECORD
5
1
100
AcDbSymbolTable
70
1
0
BLOCK_RECORD
5
1F
100
AcDbSymbolTableRecord
100
AcDbBlockTableRecord
2
*MODEL_SPACE
0
BLOCK_RECORD
5
1B
100
AcDbSymbolTableRecord
100
AcDbBlockTableRecord
2
*PAPER_SPACE
0
ENDTAB
0
ENDSEC
0
SECTION
2
BLOCKS
0
BLOCK
5
20
100
AcDbEntity
100
AcDbBlockBegin
2
*MODEL_SPACE
0
ENDBLK
5
21
100
AcDbEntity
100
AcDbBlockEnd
0
BLOCK
5
1C
100
AcDbEntity
100
AcDbBlockBegin
2
*PAPER_SPACE
0
ENDBLK
5
1D
100
AcDbEntity
100
AcDbBlockEnd
0
ENDSEC
0
SECTION
2
ENTITIES
0
LINE
5
100
100
AcDbEntity
8
0
100
AcDbLine
10
-4
20
12.500000000000002
30
0
11
4
21
12.5
31
0
0
LINE
5
101
100
AcDbEntity
8
0
100
AcDbLine
10
4
20
5.7874079730315975
30
0
11
4
21
5.5000000006700267
31
0
0
LINE
5
102
100
AcDbEntity
8
0
100
AcDbLine
10
0
20
-4.4999999925494194
30
0
11
0
21
20
31
0
0
LINE
5
103
100
AcDbEntity
8
0
100
AcDbLine
10
-3.9999999999983773
20
2.5000000000000022
30
0
11
-1.2499999999991884
21
2.5000000000000022
31
0
0
LINE
5
104
100
AcDbEntity
8
0
100
AcDbLine
10
4
20
2.5
30
0
11
1.2500000000008116
21
2.5000000000000009
31
0
0
LINE
5
105
100
AcDbEntity
8
0
100
AcDbLine
10
-1.2499999999991884
20
2.5000000000000022
30
0
11
-1.2499999999992379
21
3.4999999999893117
31
0
0
LINE
5
106
100
AcDbEntity
8
0
100
AcDbLine
10
1.2500000000008116
20
2.5000000000000009
30
0
11
1.2500000000007638
21
3.4999999999880149
31
0
0
LINE
5
107
100
AcDbEntity
8
0
100
AcDbLine
10
-1.2499999999991884
20
2.5000000000000022
30
0
11
-1.2499999999991871
21
-1.5489169036185636e-15
31
0
0
LINE
5
108
100
AcDbEntity
8
0
100
AcDbLine
10
-1.2499999999991871
20
-1.5489169036185636e-15
30
0
11
1.2500000000008136
21
1.5471984545594471e-15
31
0
0
LINE
5
109
100
AcDbEntity
8
0
100
AcDbLine
10
1.2500000000008136
20
1.5471984545594471e-15
30
0
11
1.2500000000008116
21
2.5000000000000009
31
0
0
LINE
5
110
100
AcDbEntity
8
0
100
AcDbLine
10
-3.9999999999983773
20
2.5000000000000022
30
0
11
-3.9999999999984723
21
2.7874079735741946
31
0
0
LINE
5
111
100
AcDbEntity
8
0
100
AcDbLine
10
-4.000000000000095
20
5.5000000006700436
30
0
11
-4.000000000000095
21
7.7500000006700436
31
0
0
LINE
5
112
100
AcDbEntity
8
0
100
AcDbLine
10
4
20
2.7874079730316037
30
0
11
4
21
2.5
31
0
0
LINE
5
113
100
AcDbEntity
8
0
100
AcDbLine
10
4
20
10.250000000670029
30
0
11
-4.000000000000095
21
10.250000000670047
31
0
0
LINE
5
114
100
AcDbEntity
8
0
100
AcDbLine
10
362579.91764295852
20
3.4999999997616893
30
0
11
362579.91764295852
21
5.7499999997961098
31
0
0
LINE
5
115
100
AcDbEntity
8
0
100
AcDbLine
10
362579.91764295852
20
5.7499999997961098
30
0
11
362579.91764295852
21
7.9999999998305293
31
0
0
LINE
5
116
100
AcDbEntity
8
0
100
AcDbLine
10
362579.91764295852
20
7.9999999998305293
30
0
11
362579.91764295852
21
10.249999999864949
31
0
0
LINE
5
117
100
AcDbEntity
8
0
100
AcDbLine
10
362579.91764295852
20
10.249999999864949
30
0
11
362579.91764295852
21
12.499999999899369
31
0
0
LINE
5
118
100
AcDbEntity
8
0
100
AcDbLine
10
4
20
10.500000000670031
30
0
11
-4.000000000000095
21
10.500000000670049
31
0
0
LINE
5
119
100
AcDbEntity
8
0
100
AcDbLine
10
4
20
10.000000000670026
30
0
11
3.5919077656285525
21
10.500000000670033
31
0
0
LINE
5
120
100
AcDbEntity
8
0
100
AcDbLine
10
3.5919077656285525
20
10.500000000670033
30
0
11
3.1999999999945121
21
10.000000000670031
31
0
0
LINE
5
121
100
AcDbEntity
8
0
100
AcDbLine
10
3.1999999999945121
20
10.000000000670031
30
0
11
2.7919077656281677
21
10.500000000670033
31
0
0
LINE
5
122
100
AcDbEntity
8
0
100
AcDbLine
10
2.7919077656281677
20
10.500000000670033
30
0
11
2.4000000000029469
21
10.000000000670035
31
0
0
LINE
5
123
100
AcDbEntity
8
0
100
AcDbLine
10
2.4000000000029469
20
10.000000000670035
30
0
11
1.9919077656278661
21
10.500000000670035
31
0
0
LINE
5
124
100
AcDbEntity
8
0
100
AcDbLine
10
1.9919077656278661
20
10.500000000670035
30
0
11
1.6000000000026471
21
10.000000000670031
31
0
0
LINE
5
125
100
AcDbEntity
8
0
100
AcDbLine
10
1.6000000000026471
20
10.000000000670031
30
0
11
1.191907765623778
21
10.500000000670038
31
0
0
LINE
5
126
100
AcDbEntity
8
0
100
AcDbLine
10
1.191907765623778
20
10.500000000670038
30
0
11
0.79999999999855698
21
10.000000000670035
31
0
0
LINE
5
127
100
AcDbEntity
8
0
100
AcDbLine
10
0.79999999999855698
20
10.000000000670035
30
0
11
0.3919077656191543
21
10.50000000067004
31
0
0
LINE
5
128
100
AcDbEntity
8
0
100
AcDbLine
10
0.3919077656191543
20
10.50000000067004
30
0
11
-4.7499953360037671e-14
21
10.000000000670038
31
0
0
LINE
5
129
100
AcDbEntity
8
0
100
AcDbLine
10
-4.7499953360037671e-14
20
10.000000000670038
30
0
11
-0.40809223437895897
21
10.50000000067004
31
0
0
LINE
5
130
100
AcDbEntity
8
0
100
AcDbLine
10
-0.40809223437895897
20
10.50000000067004
30
0
11
-0.79999999999815419
21
10.000000000670038
31
0
0
LINE
5
131
100
AcDbEntity
8
0
100
AcDbLine
10
-0.79999999999815419
20
10.000000000670038
30
0
11
-1.2080922343771734
21
10.500000000670042
31
0
0
LINE
5
132
100
AcDbEntity
8
0
100
AcDbLine
10
-1.2080922343771734
20
10.500000000670042
30
0
11
-1.599999999996363
21
10.000000000670042
31
0
0
LINE
5
133
100
AcDbEntity
8
0
100
AcDbLine
10
-1.599999999996363
20
10.000000000670042
30
0
11
-2.0080922343752698
21
10.500000000670045
31
0
0
LINE
5
134
100
AcDbEntity
8
0
100
AcDbLine
10
-2.0080922343752698
20
10.500000000670045
30
0
11
-2.3999999999991979
21
10.000000000670042
31
0
0
LINE
5
135
100
AcDbEntity
8
0
100
AcDbLine
10
-2.3999999999991979
20
10.000000000670042
30
0
11
-2.8080922343781038
21
10.500000000670047
31
0
0
LINE
5
136
100
AcDbEntity
8
0
100
AcDbLine
10
-2.8080922343781038
20
10.500000000670047
30
0
11
-3.1999999999972606
21
10.000000000670044
31
0
0
LINE
5
137
100
AcDbEntity
8
0
100
AcDbLine
10
-3.1999999999972606
20
10.000000000670044
30
0
11
-3.608092234376171
21
10.500000000670047
31
0
0
LINE
5
138
100
AcDbEntity
8
0
100
AcDbLine
10
-3.608092234376171
20
10.500000000670047
30
0
11
-4.000000000000095
21
10.000000000670042
31
0
0
LINE
5
139
100
AcDbEntity
8
0
100
AcDbLine
10
4
20
7.7500000006700267
30
0
11
3.5919077656285525
21
8.2500000006700329
31
0
0
LINE
5
140
100
AcDbEntity
8
0
100
AcDbLine
10
3.5919077656285525
20
8.2500000006700329
30
0
11
3.1999999999945121
21
7.7500000006700311
31
0
0
LINE
5
141
100
AcDbEntity
8
0
100
AcDbLine
10
3.1999999999945121
20
7.7500000006700311
30
0
11
2.7919077656281677
21
8.2500000006700329
31
0
0
LINE
5
142
100
AcDbEntity
8
0
100
AcDbLine
10
2.7919077656281677
20
8.2500000006700329
30
0
11
2.4000000000029469
21
7.7500000006700347
31
0
0
LINE
5
143
100
AcDbEntity
8
0
100
AcDbLine
10
2.4000000000029469
20
7.7500000006700347
30
0
11
1.9919077656278661
21
8.2500000006700365
31
0
0
LINE
5
144
100
AcDbEntity
8
0
100
AcDbLine
10
1.9919077656278661
20
8.2500000006700365
30
0
11
1.6000000000026471
21
7.7500000006700311
31
0
0
LINE
5
145
100
AcDbEntity
8
0
100
AcDbLine
10
1.6000000000026471
20
7.7500000006700311
30
0
11
1.191907765623778
21
8.2500000006700382
31
0
0
LINE
5
146
100
AcDbEntity
8
0
100
AcDbLine
10
1.191907765623778
20
8.2500000006700382
30
0
11
0.79999999999855698
21
7.7500000006700356
31
0
0
LINE
5
147
100
AcDbEntity
8
0
100
AcDbLine
10
0.79999999999855698
20
7.7500000006700356
30
0
11
0.3919077656191543
21
8.25000000067004
31
0
0
LINE
5
148
100
AcDbEntity
8
0
100
AcDbLine
10
0.3919077656191543
20
8.25000000067004
30
0
11
-4.7499953360037671e-14
21
7.7500000006700365
31
0
0
LINE
5
149
100
AcDbEntity
8
0
100
AcDbLine
10
-4.7499953360037671e-14
20
7.7500000006700365
30
0
11
-0.40809223437895897
21
8.25000000067004
31
0
0
LINE
5
150
100
AcDbEntity
8
0
100
AcDbLine
10
-0.40809223437895897
20
8.25000000067004
30
0
11
-0.79999999999815419
21
7.7500000006700382
31
0
0
LINE
5
151
100
AcDbEntity
8
0
100
AcDbLine
10
-0.79999999999815419
20
7.7500000006700382
30
0
11
-1.2080922343771734
21
8.2500000006700418
31
0
0
LINE
5
152
100
AcDbEntity
8
0
100
AcDbLine
10
-1.2080922343771734
20
8.2500000006700418
30
0
11
-1.599999999996363
21
7.7500000006700418
31
0
0
LINE
5
153
100
AcDbEntity
8
0
100
AcDbLine
10
-1.599999999996363
20
7.7500000006700418
30
0
11
-2.0080922343752698
21
8.2500000006700454
31
0
0
LINE
5
154
100
AcDbEntity
8
0
100
AcDbLine
10
-2.0080922343752698
20
8.2500000006700454
30
0
11
-2.3999999999991979
21
7.7500000006700418
31
0
0
LINE
5
155
100
AcDbEntity
8
0
100
AcDbLine
10
-2.3999999999991979
20
7.7500000006700418
30
0
11
-2.8080922343781038
21
8.2500000006700471
31
0
0
LINE
5
156
100
AcDbEntity
8
0
100
AcDbLine
10
-2.8080922343781038
20
8.2500000006700471
30
0
11
-3.1999999999972606
21
7.7500000006700436
31
0
0
LINE
5
157
100
AcDbEntity
8
0
100
AcDbLine
10
-3.1999999999972606
20
7.7500000006700436
30
0
11
-3.608092234376171
21
8.2500000006700471
31
0
0
LINE
5
158
100
AcDbEntity
8
0
100
AcDbLine
10
-3.608092234376171
20
8.2500000006700471
30
0
11
-4.000000000000095
21
7.7500000006700436
31
0
0
LINE
5
159
100
AcDbEntity
8
0
100
AcDbLine
10
4
20
5.5000000006700267
30
0
11
3.5919077656285525
21
6.0000000006700338
31
0
0
LINE
5
160
100
AcDbEntity
8
0
100
AcDbLine
10
3.5919077656285525
20
6.0000000006700338
30
0
11
3.1999999999945121
21
5.5000000006700311
31
0
0
LINE
5
161
100
AcDbEntity
8
0
100
AcDbLine
10
3.1999999999945121
20
5.5000000006700311
30
0
11
2.7919077656281677
21
6.0000000006700338
31
0
0
LINE
5
162
100
AcDbEntity
8
0
100
AcDbLine
10
2.7919077656281677
20
6.0000000006700338
30
0
11
2.4000000000029469
21
5.5000000006700347
31
0
0
LINE
5
163
100
AcDbEntity
8
0
100
AcDbLine
10
2.4000000000029469
20
5.5000000006700347
30
0
11
1.9919077656278661
21
6.0000000006700365
31
0
0
LINE
5
164
100
AcDbEntity
8
0
100
AcDbLine
10
1.9919077656278661
20
6.0000000006700365
30
0
11
1.6000000000026471
21
5.5000000006700311
31
0
0
LINE
5
165
100
AcDbEntity
8
0
100
AcDbLine
10
1.6000000000026471
20
5.5000000006700311
30
0
11
1.191907765623778
21
6.0000000006700382
31
0
0
LINE
5
166
100
AcDbEntity
8
0
100
AcDbLine
10
1.191907765623778
20
6.0000000006700382
30
0
11
0.79999999999855698
21
5.5000000006700356
31
0
0
LINE
5
167
100
AcDbEntity
8
0
100
AcDbLine
10
0.79999999999855698
20
5.5000000006700356
30
0
11
0.3919077656191543
21
6.00000000067004
31
0
0
LINE
5
168
100
AcDbEntity
8
0
100
AcDbLine
10
0.3919077656191543
20
6.00000000067004
30
0
11
-4.7499953360037671e-14
21
5.5000000006700365
31
0
0
LINE
5
169
100
AcDbEntity
8
0
100
AcDbLine
10
-4.7499953360037671e-14
20
5.5000000006700365
30
0
11
-0.40809223437895897
21
6.00000000067004
31
0
0
LINE
5
170
100
AcDbEntity
8
0
100
AcDbLine
10
-0.40809223437895897
20
6.00000000067004
30
0
11
-0.79999999999815419
21
5.5000000006700382
31
0
0
LINE
5
171
100
AcDbEntity
8
0
100
AcDbLine
10
-0.79999999999815419
20
5.5000000006700382
30
0
11
-1.2080922343771734
21
6.0000000006700427
31
0
0
LINE
5
172
100
AcDbEntity
8
0
100
AcDbLine
10
-1.2080922343771734
20
6.0000000006700427
30
0
11
-1.599999999996363
21
5.5000000006700418
31
0
0
LINE
5
173
100
AcDbEntity
8
0
100
AcDbLine
10
-1.599999999996363
20
5.5000000006700418
30
0
11
-2.0080922343752698
21
6.0000000006700454
31
0
0
LINE
5
174
100
AcDbEntity
8
0
100
AcDbLine
10
-2.0080922343752698
20
6.0000000006700454
30
0
11
-2.3999999999991979
21
5.5000000006700418
31
0
0
LINE
5
175
100
AcDbEntity
8
0
100
AcDbLine
10
-2.3999999999991979
20
5.5000000006700418
30
0
11
-2.8080922343781038
21
6.0000000006700471
31
0
0
LINE
5
176
100
AcDbEntity
8
0
100
AcDbLine
10
-2.8080922343781038
20
6.0000000006700471
30
0
11
-3.1999999999972606
21
5.5000000006700436
31
0
0
LINE
5
177
100
AcDbEntity
8
0
100
AcDbLine
10
-3.1999999999972606
20
5.5000000006700436
30
0
11
-3.608092234376171
21
6.0000000006700471
31
0
0
LINE
5
178
100
AcDbEntity
8
0
100
AcDbLine
10
-3.608092234376171
20
6.0000000006700471
30
0
11
-4.000000000000095
21
5.5000000006700436
31
0
0
LINE
5
179
100
AcDbEntity
8
0
100
AcDbLine
10
1.2500000000007638
20
3.4999999999880149
30
0
11
0.83333333333382553
21
3.9999999999883391
31
0
0
LINE
5
180
100
AcDbEntity
8
0
100
AcDbLine
10
0.83333333333382553
20
3.9999999999883391
30
0
11
0.41666666666688712
21
3.4999999999880149
31
0
0
LINE
5
181
100
AcDbEntity
8
0
100
AcDbLine
10
0.41666666666688712
20
3.4999999999880149
30
0
11
-4.746329509864712e-14
21
3.9999999999883391
31
0
0
LINE
5
182
100
AcDbEntity
8
0
100
AcDbLine
10
-4.746329509864712e-14
20
3.9999999999883391
30
0
11
-0.4166666666667091
21
3.4999999999883395
31
0
0
LINE
5
183
100
AcDbEntity
8
0
100
AcDbLine
10
-0.4166666666667091
20
3.4999999999883395
30
0
11
-0.83333333333338155
21
3.9999999999883391
31
0
0
LINE
5
184
100
AcDbEntity
8
0
100
AcDbLine
10
-0.83333333333338155
20
3.9999999999883391
30
0
11
-1.2499999999992379
21
3.4999999999893117
31
0
0
LINE
5
185
100
AcDbEntity
8
0
100
AcDbLine
10
1.2999999709427357
20
3.9999999999883391
30
0
11
-1.4999999664723873
21
3.9999999999883391
31
0
0
LINE
5
186
100
AcDbEntity
8
0
100
AcDbLine
10
-3.9999999999984723
20
2.7874079735741946
30
0
11
-4.000000000000095
21
5.5000000006700436
31
0
0
LINE
5
187
100
AcDbEntity
8
0
100
AcDbLine
10
4
20
5.5000000006700267
30
0
11
4
21
2.7874079730316037
31
0
0
LINE
5
188
100
AcDbEntity
8
0
100
AcDbLine
10
4
20
12.5
30
0
11
4
21
10.000000000670026
31
0
0
LINE
5
189
100
AcDbEntity
8
0
100
AcDbLine
10
4
20
7.7500000006700267
30
0
11
4
21
5.7874079730315975
31
0
0
LINE
5
190
100
AcDbEntity
8
0
100
AcDbLine
10
-4.000000000000095
20
10.000000000670042
30
0
11
-4
21
12.500000000000002
31
0
0
LINE
5
191
100
AcDbEntity
8
0
100
AcDbLine
10
-4.000000000000095
20
7.7500000006700436
30
0
11
-4.000000000000095
21
10.000000000670042
31
0
0
LINE
5
192
100
AcDbEntity
8
0
100
AcDbLine
10
4
20
10.000000000670026
30
0
11
4
21
7.7500000006700267
31
0
0
ENDSEC
0
SECTION
2
OBJECTS
0
DICTIONARY
5
C
100
AcDbDictionary
3
ACAD_GROUP
350
D
3
ACAD_MLINESTYLE
350
17
0
DICTIONARY
5
D
100
AcDbDictionary
0
DICTIONARY
5
1A
330
C
100
AcDbDictionary
0
DICTIONARY
5
17
100
AcDbDictionary
0
ENDSEC
0
EOF
