0
SECTION
2
HEADER
9
$INSUNITS
70
4
9
$ACADVER
1
AC1014
9
$HANDSEED
5
FFFF
0
ENDSEC
0
SECTION
2
TABLES
0
TABLE
2
VPORT
5
8
100
AcDbSymbolTable
0
ENDTAB
0
TABLE
2
LTYPE
5
5
100
AcDbSymbolTable
0
LTYPE
5
14
100
AcDbSymbolTableRecord
100
AcDbLinetypeTableRecord
2
BYBLOCK
70
0
0
LTYPE
5
15
100
AcDbSymbolTableRecord
100
AcDbLinetypeTableRecord
2
BYLAYER
70
0
0
ENDTAB
0
TABLE
2
LAYER
5
2
100
AcDbSymbolTable
70
2
0
LAYER
5
50
100
AcDbSymbolTableRecord
100
AcDbLayerTableRecord
2
0
70
0
6
CONTINUOUS
0
ENDTAB
0
TABLE
2
STYLE
5
3
100
AcDbSymbolTable
70
1
0
STYLE
5
11
100
AcDbSymbolTableRecord
100
AcDbTextStyleTableRecord
2
STANDARD
70
0
0
ENDTAB
0
TABLE
2
VIEW
5
6
100
AcDbSymbolTable
70
0
0
ENDTAB
0
TABLE
2
UCS
5
7
100
AcDbSymbolTable
70
0
0
ENDTAB
0
TABLE
2
APPID
5
9
100
AcDbSymbolTable
70
2
0
APPID
5
12
100
AcDbSymbolTableRecord
100
AcDbRegAppTableRecord
2
ACAD
70
0
0
ENDTAB
0
TABLE
2
DIMSTYLE
5
A
100
AcDbSymbolTable
70
1
0
ENDTAB
0
TABLE
2
BLOCK_RECORD
5
1
100
AcDbSymbolTable
70
1
0
BLOCK_RECORD
5
1F
100
AcDbSymbolTableRecord
100
AcDbBlockTableRecord
2
*MODEL_SPACE
0
BLOCK_RECORD
5
1B
100
AcDbSymbolTableRecord
100
AcDbBlockTableRecord
2
*PAPER_SPACE
0
ENDTAB
0
ENDSEC
0
SECTION
2
BLOCKS
0
BLOCK
5
20
100
AcDbEntity
100
AcDbBlockBegin
2
*MODEL_SPACE
0
ENDBLK
5
21
100
AcDbEntity
100
AcDbBlockEnd
0
BLOCK
5
1C
100
AcDbEntity
100
AcDbBlockBegin
2
*PAPER_SPACE
0
ENDBLK
5
1D
100
AcDbEntity
100
AcDbBlockEnd
0
ENDSEC
0
SECTION
2
ENTITIES
0
LINE
5
100
100
AcDbEntity
8
0
100
AcDbLine
10
-1.25
20
5.6269011326793199e-17
30
0
11
1.25
21
-5.6269011326793199e-17
31
0
0
LINE
5
101
100
AcDbEntity
8
0
100
AcDbLine
10
1.25
20
-5.6269011326793199e-17
30
0
11
1.2500000000000011
21
2.5
31
0
0
LINE
5
102
100
AcDbEntity
8
0
100
AcDbLine
10
1.2500000000000011
20
2.5
30
0
11
4.9999999999999991
21
2.5000000000000009
31
0
0
LINE
5
103
100
AcDbEntity
8
0
100
AcDbLine
10
4.9999999999999991
20
2.5000000000000009
30
0
11
5.0000000000000053
21
12.5
31
0
0
LINE
5
104
100
AcDbEntity
8
0
100
AcDbLine
10
5.0000000000000053
20
12.5
30
0
11
-4.9999999999999938
21
12.500000000000004
31
0
0
LINE
5
105
100
AcDbEntity
8
0
100
AcDbLine
10
-4.9999999999999938
20
12.500000000000004
30
0
11
-4.9999999999999991
21
2.5000000000000018
31
0
0
LINE
5
106
100
AcDbEntity
8
0
100
AcDbLine
10
-4.9999999999999991
20
2.5000000000000018
30
0
11
-1.2500000000000004
21
2.5000000000000009
31
0
0
LINE
5
107
100
AcDbEntity
8
0
100
AcDbLine
10
-1.2500000000000004
20
2.5000000000000009
30
0
11
-1.25
21
5.6269011326793199e-17
31
0
0
LINE
5
108
100
AcDbEntity
8
0
100
AcDbLine
10
-1.2500000000000004
20
2.5000000000000009
30
0
11
2.2428106198513802e-16
21
4.0000000000000018
31
0
0
LINE
5
109
100
AcDbEntity
8
0
100
AcDbLine
10
2.2428106198513802e-16
20
4.0000000000000018
30
0
11
1.2500000000000011
21
2.5
31
0
0
LINE
5
110
100
AcDbEntity
8
0
100
AcDbLine
10
-1.2374368670764579
20
8.7374368670764628
30
0
11
-1.2374368670764944
21
10.434493141924213
31
0
0
LINE
5
111
100
AcDbEntity
8
0
100
AcDbLine
10
-1.2374368670764944
20
10.434493141924213
30
0
11
-3.5857864376268993
21
9.3887301627791935
31
0
0
LINE
5
112
100
AcDbEntity
8
0
100
AcDbLine
10
-3.5857864376268993
20
9.3887301627791935
30
0
11
-3.5857864376269006
21
11.085786437626908
31
0
0
LINE
5
113
100
AcDbEntity
8
0
100
AcDbLine
10
-4.9999999999999938
20
12.500000000000004
30
0
11
-3.5857864376269006
21
11.085786437626908
31
0
0
LINE
5
114
100
AcDbEntity
8
0
100
AcDbLine
10
-5.0000000000000018
20
2.5000000000000067
30
0
11
-3.5857864376269055
21
3.9142135623731011
31
0
0
LINE
5
115
100
AcDbEntity
8
0
100
AcDbLine
10
-1.8887301627791897
20
3.914213562373102
30
0
11
-3.5857864376269055
21
3.9142135623731011
31
0
0
LINE
5
116
100
AcDbEntity
8
0
100
AcDbLine
10
-2.9344931419242104
20
6.2625631329235079
30
0
11
-1.8887301627791897
21
3.914213562373102
31
0
0
LINE
5
117
100
AcDbEntity
8
0
100
AcDbLine
10
-1.2374368670764613
20
6.2625631329235443
30
0
11
-2.9344931419242104
21
6.2625631329235079
31
0
0
LINE
5
118
100
AcDbEntity
8
0
100
AcDbLine
10
4.999999999999992
20
2.5
30
0
11
3.5857864376268993
21
3.9142135623730967
31
0
0
LINE
5
119
100
AcDbEntity
8
0
100
AcDbLine
10
3.5857864376268984
20
5.6112698372208119
30
0
11
3.5857864376268993
21
3.9142135623730967
31
0
0
LINE
5
120
100
AcDbEntity
8
0
100
AcDbLine
10
1.237436867076493
20
4.5655068580757918
30
0
11
3.5857864376268984
21
5.6112698372208119
31
0
0
LINE
5
121
100
AcDbEntity
8
0
100
AcDbLine
10
1.2374368670764566
20
6.2625631329235407
30
0
11
1.237436867076493
21
4.5655068580757918
31
0
0
LINE
5
122
100
AcDbEntity
8
0
100
AcDbLine
10
5.0000000000000018
20
12.499999999999996
30
0
11
3.5857864376269055
21
11.085786437626901
31
0
0
LINE
5
123
100
AcDbEntity
8
0
100
AcDbLine
10
1.8887301627791919
20
11.085786437626901
30
0
11
3.5857864376269055
21
11.085786437626901
31
0
0
LINE
5
124
100
AcDbEntity
8
0
100
AcDbLine
10
2.9344931419242104
20
8.7374368670764966
30
0
11
1.8887301627791919
21
11.085786437626901
31
0
0
LINE
5
125
100
AcDbEntity
8
0
100
AcDbLine
10
1.2374368670764613
20
8.7374368670764593
30
0
11
2.9344931419242104
21
8.7374368670764966
31
0
0
LINE
5
126
100
AcDbEntity
8
0
100
AcDbLine
10
-1.2374368670764579
20
8.7374368670764628
30
0
11
-0.88388347648318621
21
8.383883476483188
31
0
0
LINE
5
127
100
AcDbEntity
8
0
100
AcDbLine
10
-1.2374368670764613
20
6.2625631329235443
30
0
11
-0.88388347648318599
21
6.6161165235168165
31
0
0
LINE
5
128
100
AcDbEntity
8
0
100
AcDbLine
10
1.2374368670764566
20
6.2625631329235407
30
0
11
0.8838834764831851
21
6.6161165235168165
31
0
0
LINE
5
129
100
AcDbEntity
8
0
100
AcDbLine
10
1.2374368670764613
20
8.7374368670764593
30
0
11
0.88388347648318599
21
8.383883476483188
31
0
0
ARC
5
130
100
AcDbEntity
8
0
100
AcDbCircle
10
-5.5511151231257827e-16
20
7.5000000000000018
30
0
40
1.250000000000002
210
0
220
0
230
1
100
AcDbArc
50
-45
51
44.999999999999986
0
ARC
5
131
100
AcDbEntity
8
0
100
AcDbCircle
10
-5.5511151231257827e-16
20
7.5000000000000018
30
0
40
1.250000000000002
210
0
220
0
230
1
100
AcDbArc
50
135
51
225
0
ARC
5
132
100
AcDbEntity
8
0
100
AcDbCircle
10
-5.5511151231257827e-16
20
7.5000000000000018
30
0
40
1.2500000000000024
210
0
220
-0
230
1
100
AcDbArc
50
44.999999999999986
51
135
0
ARC
5
133
100
AcDbEntity
8
0
100
AcDbCircle
10
-5.5511151231257827e-16
20
7.5000000000000018
30
0
40
1.250000000000002
210
0
220
0
230
1
100
AcDbArc
50
225
51
315
0
ENDSEC
0
SECTION
2
OBJECTS
0
DICTIONARY
5
C
100
AcDbDictionary
3
ACAD_GROUP
350
D
3
ACAD_MLINESTYLE
350
17
0
DICTIONARY
5
D
100
AcDbDictionary
0
DICTIONARY
5
1A
330
C
100
AcDbDictionary
0
DICTIONARY
5
17
100
AcDbDictionary
0
ENDSEC
0
EOF
