0
SECTION
2
HEADER
9
$INSUNITS
70
4
9
$ACADVER
1
AC1014
9
$HANDSEED
5
FFFF
0
ENDSEC
0
SECTION
2
TABLES
0
TABLE
2
VPORT
5
8
100
AcDbSymbolTable
0
ENDTAB
0
TABLE
2
LTYPE
5
5
100
AcDbSymbolTable
0
LTYPE
5
14
100
AcDbSymbolTableRecord
100
AcDbLinetypeTableRecord
2
BYBLOCK
70
0
0
LTYPE
5
15
100
AcDbSymbolTableRecord
100
AcDbLinetypeTableRecord
2
BYLAYER
70
0
0
ENDTAB
0
TABLE
2
LAYER
5
2
100
AcDbSymbolTable
70
2
0
LAYER
5
50
100
AcDbSymbolTableRecord
100
AcDbLayerTableRecord
2
0
70
0
6
CONTINUOUS
0
ENDTAB
0
TABLE
2
STYLE
5
3
100
AcDbSymbolTable
70
1
0
STYLE
5
11
100
AcDbSymbolTableRecord
100
AcDbTextStyleTableRecord
2
STANDARD
70
0
0
ENDTAB
0
TABLE
2
VIEW
5
6
100
AcDbSymbolTable
70
0
0
ENDTAB
0
TABLE
2
UCS
5
7
100
AcDbSymbolTable
70
0
0
ENDTAB
0
TABLE
2
APPID
5
9
100
AcDbSymbolTable
70
2
0
APPID
5
12
100
AcDbSymbolTableRecord
100
AcDbRegAppTableRecord
2
ACAD
70
0
0
ENDTAB
0
TABLE
2
DIMSTYLE
5
A
100
AcDbSymbolTable
70
1
0
ENDTAB
0
TABLE
2
BLOCK_RECORD
5
1
100
AcDbSymbolTable
70
1
0
BLOCK_RECORD
5
1F
100
AcDbSymbolTableRecord
100
AcDbBlockTableRecord
2
*MODEL_SPACE
0
BLOCK_RECORD
5
1B
100
AcDbSymbolTableRecord
100
AcDbBlockTableRecord
2
*PAPER_SPACE
0
ENDTAB
0
ENDSEC
0
SECTION
2
BLOCKS
0
BLOCK
5
20
100
AcDbEntity
100
AcDbBlockBegin
2
*MODEL_SPACE
0
ENDBLK
5
21
100
AcDbEntity
100
AcDbBlockEnd
0
BLOCK
5
1C
100
AcDbEntity
100
AcDbBlockBegin
2
*PAPER_SPACE
0
ENDBLK
5
1D
100
AcDbEntity
100
AcDbBlockEnd
0
ENDSEC
0
SECTION
2
ENTITIES
0
LINE
5
100
100
AcDbEntity
8
0
100
AcDbLine
10
1.2500000000000011
20
2.5
30
0
11
4.9999999999999991
21
2.5000000000000009
31
0
0
LINE
5
101
100
AcDbEntity
8
0
100
AcDbLine
10
4.9999999999999991
20
2.5000000000000009
30
0
11
5.0000000000000053
21
12.5
31
0
0
LINE
5
102
100
AcDbEntity
8
0
100
AcDbLine
10
5.0000000000000053
20
12.5
30
0
11
-4.9999999999999947
21
12.500000000000004
31
0
0
LINE
5
103
100
AcDbEntity
8
0
100
AcDbLine
10
-4.9999999999999938
20
12.500000000000004
30
0
11
-4.9999999999999991
21
2.5000000000000022
31
0
0
LINE
5
104
100
AcDbEntity
8
0
100
AcDbLine
10
0.88388347648269761
20
8.3838834764827013
30
0
11
1.0606601717793354
21
8.5606601717793378
31
0
0
LINE
5
105
100
AcDbEntity
8
0
100
AcDbLine
10
1.0606601717793356
20
9.1263455967285765
30
0
11
1.0606601717793354
21
8.5606601717793378
31
0
0
LINE
5
106
100
AcDbEntity
8
0
100
AcDbLine
10
1.6263455967285745
20
9.1263455967285783
30
0
11
1.6263455967285743
21
9.6920310216778134
31
0
0
LINE
5
107
100
AcDbEntity
8
0
100
AcDbLine
10
1.6263455967285743
20
9.6920310216778134
30
0
11
2.1920310216778098
21
9.6920310216778134
31
0
0
LINE
5
108
100
AcDbEntity
8
0
100
AcDbLine
10
2.1920310216778098
20
9.6920310216778134
30
0
11
2.1920310216778112
21
10.257716446627052
31
0
0
LINE
5
109
100
AcDbEntity
8
0
100
AcDbLine
10
2.1920310216778112
20
10.257716446627052
30
0
11
2.7577164466270476
21
10.257716446627052
31
0
0
LINE
5
110
100
AcDbEntity
8
0
100
AcDbLine
10
2.7577164466270476
20
10.257716446627052
30
0
11
2.7577164466270481
21
10.823401871576287
31
0
0
LINE
5
111
100
AcDbEntity
8
0
100
AcDbLine
10
2.7577164466270481
20
10.823401871576287
30
0
11
3.3234018715762845
21
10.823401871576287
31
0
0
LINE
5
112
100
AcDbEntity
8
0
100
AcDbLine
10
3.3234018715762845
20
10.823401871576287
30
0
11
3.3234018715762841
21
11.389087296525524
31
0
0
LINE
5
113
100
AcDbEntity
8
0
100
AcDbLine
10
3.3234018715762841
20
11.389087296525524
30
0
11
3.8890872965255201
21
11.389087296525524
31
0
0
LINE
5
114
100
AcDbEntity
8
0
100
AcDbLine
10
3.8890872965255201
20
11.389087296525524
30
0
11
3.8890872965255214
21
11.954772721474761
31
0
0
LINE
5
115
100
AcDbEntity
8
0
100
AcDbLine
10
3.8890872965255214
20
11.954772721474761
30
0
11
4.4547727214747557
21
11.954772721474761
31
0
0
LINE
5
116
100
AcDbEntity
8
0
100
AcDbLine
10
4.4547727214747557
20
11.954772721474761
30
0
11
4.9999999999999991
21
12.500000000000002
31
0
0
LINE
5
117
100
AcDbEntity
8
0
100
AcDbLine
10
1.0606601717793356
20
9.1263455967285765
30
0
11
1.6263455967285745
21
9.1263455967285783
31
0
0
LINE
5
118
100
AcDbEntity
8
0
100
AcDbLine
10
4.4547727214747601
20
3.0452272785252466
30
0
11
5.0000000000000036
21
2.5000000000000036
31
0
0
LINE
5
119
100
AcDbEntity
8
0
100
AcDbLine
10
4.4547727214747619
20
3.6109127034744808
30
0
11
4.4547727214747601
21
3.0452272785252466
31
0
0
LINE
5
120
100
AcDbEntity
8
0
100
AcDbLine
10
3.8890872965255245
20
3.6109127034744821
30
0
11
4.4547727214747619
21
3.6109127034744808
31
0
0
LINE
5
121
100
AcDbEntity
8
0
100
AcDbLine
10
3.8890872965255241
20
4.1765981284237181
30
0
11
3.8890872965255245
21
3.6109127034744821
31
0
0
LINE
5
122
100
AcDbEntity
8
0
100
AcDbLine
10
3.3234018715762876
20
4.1765981284237172
30
0
11
3.8890872965255241
21
4.1765981284237181
31
0
0
LINE
5
123
100
AcDbEntity
8
0
100
AcDbLine
10
3.3234018715762876
20
4.7422835533729542
30
0
11
3.3234018715762876
21
4.1765981284237172
31
0
0
LINE
5
124
100
AcDbEntity
8
0
100
AcDbLine
10
2.7577164466270512
20
4.742283553372955
30
0
11
3.3234018715762876
21
4.7422835533729542
31
0
0
LINE
5
125
100
AcDbEntity
8
0
100
AcDbLine
10
2.7577164466270512
20
5.3079689783221902
30
0
11
2.7577164466270512
21
4.742283553372955
31
0
0
LINE
5
126
100
AcDbEntity
8
0
100
AcDbLine
10
2.1920310216778125
20
5.3079689783221919
30
0
11
2.7577164466270512
21
5.3079689783221902
31
0
0
LINE
5
127
100
AcDbEntity
8
0
100
AcDbLine
10
2.1920310216778125
20
5.873654403271428
30
0
11
2.1920310216778125
21
5.3079689783221919
31
0
0
LINE
5
128
100
AcDbEntity
8
0
100
AcDbLine
10
1.6263455967285767
20
5.8736544032714271
30
0
11
2.1920310216778125
21
5.873654403271428
31
0
0
LINE
5
129
100
AcDbEntity
8
0
100
AcDbLine
10
1.6263455967285745
20
6.4393398282206675
30
0
11
1.6263455967285767
21
5.8736544032714271
31
0
0
LINE
5
130
100
AcDbEntity
8
0
100
AcDbLine
10
0.88388347648269971
20
6.6161165235173041
30
0
11
1.0606601717793362
21
6.4393398282206675
31
0
0
LINE
5
131
100
AcDbEntity
8
0
100
AcDbLine
10
1.6263455967285745
20
6.4393398282206675
30
0
11
1.0606601717793362
21
6.4393398282206675
31
0
0
LINE
5
132
100
AcDbEntity
8
0
100
AcDbLine
10
-4.4547727214747566
20
3.0452272785252448
30
0
11
-4.9999999999999991
21
2.5000000000000018
31
0
0
LINE
5
133
100
AcDbEntity
8
0
100
AcDbLine
10
-3.8890872965255219
20
3.0452272785252434
30
0
11
-4.4547727214747566
21
3.0452272785252448
31
0
0
LINE
5
134
100
AcDbEntity
8
0
100
AcDbLine
10
-3.8890872965255205
20
3.6109127034744803
30
0
11
-3.8890872965255219
21
3.0452272785252434
31
0
0
LINE
5
135
100
AcDbEntity
8
0
100
AcDbLine
10
-3.3234018715762845
20
3.6109127034744803
30
0
11
-3.8890872965255205
21
3.6109127034744803
31
0
0
LINE
5
136
100
AcDbEntity
8
0
100
AcDbLine
10
-3.3234018715762854
20
4.1765981284237164
30
0
11
-3.3234018715762845
21
3.6109127034744803
31
0
0
LINE
5
137
100
AcDbEntity
8
0
100
AcDbLine
10
-2.7577164466270485
20
4.1765981284237164
30
0
11
-3.3234018715762854
21
4.1765981284237164
31
0
0
LINE
5
138
100
AcDbEntity
8
0
100
AcDbLine
10
-2.7577164466270481
20
4.7422835533729533
30
0
11
-2.7577164466270485
21
4.1765981284237164
31
0
0
LINE
5
139
100
AcDbEntity
8
0
100
AcDbLine
10
-2.1920310216778121
20
4.7422835533729533
30
0
11
-2.7577164466270481
21
4.7422835533729533
31
0
0
LINE
5
140
100
AcDbEntity
8
0
100
AcDbLine
10
-2.1920310216778107
20
5.3079689783221902
30
0
11
-2.1920310216778121
21
4.7422835533729533
31
0
0
LINE
5
141
100
AcDbEntity
8
0
100
AcDbLine
10
-1.6263455967285751
20
5.3079689783221902
30
0
11
-2.1920310216778107
21
5.3079689783221902
31
0
0
LINE
5
142
100
AcDbEntity
8
0
100
AcDbLine
10
-1.6263455967285756
20
5.8736544032714271
30
0
11
-1.6263455967285751
21
5.3079689783221902
31
0
0
LINE
5
143
100
AcDbEntity
8
0
100
AcDbLine
10
-1.0606601717793365
20
5.8736544032714288
30
0
11
-1.6263455967285756
21
5.8736544032714271
31
0
0
LINE
5
144
100
AcDbEntity
8
0
100
AcDbLine
10
-0.8838834764826986
20
6.6161165235173041
30
0
11
-1.0606601717793362
21
6.4393398282206675
31
0
0
LINE
5
145
100
AcDbEntity
8
0
100
AcDbLine
10
-1.0606601717793365
20
5.8736544032714288
30
0
11
-1.0606601717793362
21
6.4393398282206675
31
0
0
LINE
5
146
100
AcDbEntity
8
0
100
AcDbLine
10
-4.4547727214747566
20
11.954772721474761
30
0
11
-4.9999999999999991
21
12.500000000000002
31
0
0
LINE
5
147
100
AcDbEntity
8
0
100
AcDbLine
10
-4.4547727214747574
20
11.389087296525524
30
0
11
-4.4547727214747566
21
11.954772721474761
31
0
0
LINE
5
148
100
AcDbEntity
8
0
100
AcDbLine
10
-3.8890872965255205
20
11.389087296525524
30
0
11
-4.4547727214747574
21
11.389087296525524
31
0
0
LINE
5
149
100
AcDbEntity
8
0
100
AcDbLine
10
-3.8890872965255214
20
10.823401871576287
30
0
11
-3.8890872965255205
21
11.389087296525524
31
0
0
LINE
5
150
100
AcDbEntity
8
0
100
AcDbLine
10
-3.3234018715762854
20
10.823401871576287
30
0
11
-3.8890872965255214
21
10.823401871576287
31
0
0
LINE
5
151
100
AcDbEntity
8
0
100
AcDbLine
10
-3.3234018715762854
20
10.257716446627052
30
0
11
-3.3234018715762854
21
10.823401871576287
31
0
0
LINE
5
152
100
AcDbEntity
8
0
100
AcDbLine
10
-2.7577164466270485
20
10.25771644662705
30
0
11
-3.3234018715762854
21
10.257716446627052
31
0
0
LINE
5
153
100
AcDbEntity
8
0
100
AcDbLine
10
-2.7577164466270485
20
9.6920310216778134
30
0
11
-2.7577164466270485
21
10.25771644662705
31
0
0
LINE
5
154
100
AcDbEntity
8
0
100
AcDbLine
10
-2.1920310216778116
20
9.6920310216778134
30
0
11
-2.7577164466270485
21
9.6920310216778134
31
0
0
LINE
5
155
100
AcDbEntity
8
0
100
AcDbLine
10
-2.1920310216778116
20
9.1263455967285783
30
0
11
-2.1920310216778116
21
9.6920310216778134
31
0
0
LINE
5
156
100
AcDbEntity
8
0
100
AcDbLine
10
-1.6263455967285756
20
9.1263455967285783
30
0
11
-2.1920310216778116
21
9.1263455967285783
31
0
0
LINE
5
157
100
AcDbEntity
8
0
100
AcDbLine
10
-1.6263455967285734
20
8.5606601717793378
30
0
11
-1.6263455967285756
21
9.1263455967285783
31
0
0
LINE
5
158
100
AcDbEntity
8
0
100
AcDbLine
10
-0.8838834764826986
20
8.3838834764827013
30
0
11
-1.0606601717793351
21
8.5606601717793378
31
0
0
LINE
5
159
100
AcDbEntity
8
0
100
AcDbLine
10
-1.6263455967285734
20
8.5606601717793378
30
0
11
-1.0606601717793351
21
8.5606601717793378
31
0
0
ARC
5
160
100
AcDbEntity
8
0
100
AcDbCircle
10
-5.5511151231257827e-16
20
7.5000000000000018
30
0
40
1.2499999999993128
210
0
220
0
230
1
100
AcDbArc
50
224.99999999999997
51
315.00000000000011
0
ARC
5
161
100
AcDbEntity
8
0
100
AcDbCircle
10
-5.5511151231257827e-16
20
7.5000000000000018
30
0
40
1.2499999999993141
210
-0
220
0
230
1
100
AcDbArc
50
-44.999999999999901
51
45.000000000000007
0
ARC
5
162
100
AcDbEntity
8
0
100
AcDbCircle
10
-5.5511151231257827e-16
20
7.5000000000000018
30
0
40
1.249999999999313
210
0
220
0
230
1
100
AcDbArc
50
134.99999999999997
51
224.99999999999997
0
ARC
5
163
100
AcDbEntity
8
0
100
AcDbCircle
10
-5.5511151231257827e-16
20
7.5000000000000018
30
0
40
1.249999999999313
210
0
220
-0
230
1
100
AcDbArc
50
45.000000000000028
51
134.99999999999997
0
LINE
5
164
100
AcDbEntity
8
0
100
AcDbLine
10
-1.2500000000000004
20
3.2000000000000006
30
0
11
-0.83333333333265991
21
3.7000000000016851
31
0
0
LINE
5
165
100
AcDbEntity
8
0
100
AcDbLine
10
-0.41666666666720592
20
3.1999999999983157
30
0
11
0
21
3.7000000000000006
31
0
0
LINE
5
166
100
AcDbEntity
8
0
100
AcDbLine
10
0
20
3.7000000000000006
30
0
11
0.41666666666558827
21
3.1999999999966304
31
0
0
LINE
5
167
100
AcDbEntity
8
0
100
AcDbLine
10
0.41666666666558827
20
3.1999999999966304
30
0
11
0.8333333333326608
21
3.6999999999983153
31
0
0
LINE
5
168
100
AcDbEntity
8
0
100
AcDbLine
10
0.8333333333326608
20
3.6999999999983153
30
0
11
1.2499999999983833
21
3.1999999999949451
31
0
0
LINE
5
169
100
AcDbEntity
8
0
100
AcDbLine
10
-0.83333333333265991
20
3.7000000000016851
30
0
11
-0.41666666666720592
21
3.1999999999983157
31
0
0
LINE
5
170
100
AcDbEntity
8
0
100
AcDbLine
10
1.2499999999999938
20
3.200000000000002
30
0
11
1.2500000000000011
21
2.5
31
0
0
LINE
5
171
100
AcDbEntity
8
0
100
AcDbLine
10
-1.2500000000000004
20
2.5000000000000009
30
0
11
-1.2500000000000004
21
3.2000000000000006
31
0
0
LINE
5
172
100
AcDbEntity
8
0
100
AcDbLine
10
-4.9999999999999991
20
2.5000000000000018
30
0
11
-1.2500000000000004
21
2.5000000000000009
31
0
0
LINE
5
173
100
AcDbEntity
8
0
100
AcDbLine
10
-1.2500000000000004
20
2.5000000000000009
30
0
11
-1.25
21
0
31
0
0
LINE
5
174
100
AcDbEntity
8
0
100
AcDbLine
10
-1.25
20
5.6269011326793199e-17
30
0
11
1.25
21
-5.6269011326793199e-17
31
0
0
LINE
5
175
100
AcDbEntity
8
0
100
AcDbLine
10
1.25
20
-5.6269011326793199e-17
30
0
11
1.2500000000000011
21
2.5
31
0
0
ENDSEC
0
SECTION
2
OBJECTS
0
DICTIONARY
5
C
100
AcDbDictionary
3
ACAD_GROUP
350
D
3
ACAD_MLINESTYLE
350
17
0
DICTIONARY
5
D
100
AcDbDictionary
0
DICTIONARY
5
1A
330
C
100
AcDbDictionary
0
DICTIONARY
5
17
100
AcDbDictionary
0
ENDSEC
0
EOF
