G04 #@! TF.GenerationSoftware,KiCad,Pcbnew,5.1.9-73d0e3b20d~88~ubuntu20.04.1*
G04 #@! TF.CreationDate,2021-04-15T14:42:54-07:00*
G04 #@! TF.ProjectId,PD_ElectrodeBoard_v6,50445f45-6c65-4637-9472-6f6465426f61,6.1*
G04 #@! TF.SameCoordinates,Original*
G04 #@! TF.FileFunction,Paste,Bot*
G04 #@! TF.FilePolarity,Positive*
%FSLAX46Y46*%
G04 Gerber Fmt 4.6, Leading zero omitted, Abs format (unit mm)*
G04 Created by KiCad (PCBNEW 5.1.9-73d0e3b20d~88~ubuntu20.04.1) date 2021-04-15 14:42:54*
%MOMM*%
%LPD*%
G01*
G04 APERTURE LIST*
%ADD10R,1.200000X2.000000*%
%ADD11R,1.854200X0.457200*%
G04 APERTURE END LIST*
D10*
X199000000Y-58250000D03*
D11*
X234887500Y-67315000D03*
X231712500Y-67315000D03*
X234887500Y-68585000D03*
X231712500Y-68585000D03*
X234887500Y-69855000D03*
X231712500Y-69855000D03*
X234887500Y-71125000D03*
X231712500Y-71125000D03*
X234887500Y-72395000D03*
X231712500Y-72395000D03*
X234887500Y-73665000D03*
X231712500Y-73665000D03*
X234887500Y-74935000D03*
X231712500Y-74935000D03*
X234887500Y-76205000D03*
X231712500Y-76205000D03*
X234887500Y-77475000D03*
X231712500Y-77475000D03*
X234887500Y-78745000D03*
X231712500Y-78745000D03*
X234887500Y-80015000D03*
X231712500Y-80015000D03*
X234887500Y-81285000D03*
X231712500Y-81285000D03*
X234887500Y-82555000D03*
X231712500Y-82555000D03*
X234887500Y-83825000D03*
X231712500Y-83825000D03*
X234887500Y-85095000D03*
X231712500Y-85095000D03*
X234887500Y-86365000D03*
X231712500Y-86365000D03*
X234887500Y-87635000D03*
X231712500Y-87635000D03*
X234887500Y-88905000D03*
X231712500Y-88905000D03*
X234887500Y-90175000D03*
X231712500Y-90175000D03*
X234887500Y-91445000D03*
X231712500Y-91445000D03*
X234887500Y-92715000D03*
X231712500Y-92715000D03*
X234887500Y-93985000D03*
X231712500Y-93985000D03*
X234887500Y-95255000D03*
X231712500Y-95255000D03*
X234887500Y-96525000D03*
X231712500Y-96525000D03*
X234887500Y-97795000D03*
X231712500Y-97795000D03*
X234887500Y-99065000D03*
X231712500Y-99065000D03*
X234887500Y-100335000D03*
X231712500Y-100335000D03*
X234887500Y-101605000D03*
X231712500Y-101605000D03*
X234887500Y-102875000D03*
X231712500Y-102875000D03*
X234887500Y-104145000D03*
X231712500Y-104145000D03*
X234887500Y-105415000D03*
X231712500Y-105415000D03*
X234887500Y-106685000D03*
X231712500Y-106685000D03*
X168587500Y-67315000D03*
X165412500Y-67315000D03*
X168587500Y-68585000D03*
X165412500Y-68585000D03*
X168587500Y-69855000D03*
X165412500Y-69855000D03*
X168587500Y-71125000D03*
X165412500Y-71125000D03*
X168587500Y-72395000D03*
X165412500Y-72395000D03*
X168587500Y-73665000D03*
X165412500Y-73665000D03*
X168587500Y-74935000D03*
X165412500Y-74935000D03*
X168587500Y-76205000D03*
X165412500Y-76205000D03*
X168587500Y-77475000D03*
X165412500Y-77475000D03*
X168587500Y-78745000D03*
X165412500Y-78745000D03*
X168587500Y-80015000D03*
X165412500Y-80015000D03*
X168587500Y-81285000D03*
X165412500Y-81285000D03*
X168587500Y-82555000D03*
X165412500Y-82555000D03*
X168587500Y-83825000D03*
X165412500Y-83825000D03*
X168587500Y-85095000D03*
X165412500Y-85095000D03*
X168587500Y-86365000D03*
X165412500Y-86365000D03*
X168587500Y-87635000D03*
X165412500Y-87635000D03*
X168587500Y-88905000D03*
X165412500Y-88905000D03*
X168587500Y-90175000D03*
X165412500Y-90175000D03*
X168587500Y-91445000D03*
X165412500Y-91445000D03*
X168587500Y-92715000D03*
X165412500Y-92715000D03*
X168587500Y-93985000D03*
X165412500Y-93985000D03*
X168587500Y-95255000D03*
X165412500Y-95255000D03*
X168587500Y-96525000D03*
X165412500Y-96525000D03*
X168587500Y-97795000D03*
X165412500Y-97795000D03*
X168587500Y-99065000D03*
X165412500Y-99065000D03*
X168587500Y-100335000D03*
X165412500Y-100335000D03*
X168587500Y-101605000D03*
X165412500Y-101605000D03*
X168587500Y-102875000D03*
X165412500Y-102875000D03*
X168587500Y-104145000D03*
X165412500Y-104145000D03*
X168587500Y-105415000D03*
X165412500Y-105415000D03*
X168587500Y-106685000D03*
X165412500Y-106685000D03*
M02*
