M48
; DRILL file {KiCad 5.1.9-73d0e3b20d~88~ubuntu20.04.1} date Thu Apr 15 14:42:58 2021
; FORMAT={-:-/ absolute / inch / decimal}
; #@! TF.CreationDate,2021-04-15T14:42:58-07:00
; #@! TF.GenerationSoftware,Kicad,Pcbnew,5.1.9-73d0e3b20d~88~ubuntu20.04.1
FMAT,2
INCH
T1C0.0080
T2C0.1457
T3C0.0270
%
G90
G05
T1
X6.7177Y-2.8496
X6.7177Y-3.1449
X6.8142Y-3.8043
X6.8161Y-3.9106
X6.8161Y-4.0543
X6.9146Y-3.8083
X6.9283Y-4.078
X6.9323Y-4.1843
X6.9323Y-4.2965
X6.9382Y-2.8496
X6.9382Y-3.1449
X7.011Y-3.8083
X7.0563Y-3.1449
X7.0602Y-2.8496
X7.0917Y-3.6724
X7.1114Y-3.8102
X7.1902Y-4.078
X7.1902Y-4.1803
X7.1902Y-4.2906
X7.2079Y-3.2906
X7.2079Y-3.4382
X7.2098Y-3.5858
X7.2098Y-3.7098
X7.2098Y-3.8122
X7.2118Y-3.1409
X7.2138Y-2.8457
X7.2138Y-2.9953
X7.3083Y-3.8083
X7.3083Y-4.0583
X7.3102Y-3.6961
X7.3142Y-3.9087
X7.3555Y-3.2906
X7.3575Y-3.1409
X7.3594Y-2.9953
X7.3614Y-3.4402
X7.3614Y-3.5917
X7.3673Y-2.8457
X7.4067Y-3.8083
X7.5051Y-2.9933
X7.5051Y-3.8102
X7.5071Y-3.137
X7.5091Y-2.8457
X7.6035Y-3.8083
X7.6508Y-3.1429
X7.6547Y-2.9913
X7.6587Y-2.8457
X7.702Y-3.8083
X7.8004Y-2.9933
X7.8004Y-3.7098
X7.8004Y-3.8083
X7.8004Y-4.0583
X7.8024Y-3.1429
X7.8024Y-3.2886
X7.8024Y-3.4382
X7.8024Y-3.5839
X7.8024Y-3.9087
X7.8083Y-2.8457
X7.8988Y-3.8102
X7.9165Y-4.078
X7.9205Y-4.1783
X7.9205Y-4.2945
X7.9461Y-3.1449
X7.948Y-2.9953
X7.948Y-3.2886
X7.948Y-3.4362
X7.948Y-3.5878
X7.95Y-2.8457
X7.9972Y-3.8102
X8.0465Y-3.7236
X8.0472Y-4.4154
X8.0957Y-3.1429
X8.0957Y-3.8102
X8.0976Y-2.9933
X8.0996Y-2.8457
X8.1705Y-4.2827
X8.1724Y-4.1724
X8.1764Y-4.078
X8.1941Y-3.8102
X8.2413Y-3.1429
X8.2453Y-2.8457
X8.2492Y-2.9913
X8.2925Y-3.8102
X8.2925Y-3.9087
X8.2925Y-4.0543
X8.3909Y-3.1429
X8.3909Y-3.2925
X8.3909Y-3.4382
X8.3909Y-3.5858
X8.3909Y-3.7118
X8.3909Y-3.8102
X8.3949Y-2.8457
X8.3969Y-2.9933
X8.4894Y-3.8102
X8.5366Y-2.8457
X8.5386Y-3.2925
X8.5386Y-3.4382
X8.5386Y-3.5878
X8.5406Y-2.9972
X8.5425Y-3.1449
X8.5878Y-3.8083
X8.6654Y-3.6496
X8.6862Y-2.8457
X8.6862Y-3.1429
X8.6862Y-3.8102
X8.698Y-4.2512
X8.7846Y-4.0189
X8.7846Y-4.1685
X8.7846Y-4.2551
X8.7846Y-4.3378
X8.7866Y-3.8102
X8.7866Y-3.9087
X8.8063Y-3.1469
X8.8122Y-2.8457
X8.8752Y-4.2512
X8.9579Y-3.1469
X9.0563Y-2.8496
T2
X6.1024Y-2.313
X6.1024Y-4.8327
X9.6457Y-2.313
X9.6457Y-4.8327
T3
X6.5748Y-2.6752
X6.5748Y-4.1752
X9.185Y-2.6752
X9.185Y-4.1752
T0
M30
